<?xml version="1.0" encoding="iso-8859-1"?>
<!-- Generator: Adobe Illustrator 19.0.0, SVG Export Plug-In . SVG Version: 6.00 Build 0)  -->
<svg version="1.1" id="Capa_1" xmlns="http://www.w3.org/2000/svg" xmlns:xlink="http://www.w3.org/1999/xlink" x="0px" y="0px"
	 viewBox="0 0 512 512" style="enable-background:new 0 0 512 512;" xml:space="preserve">
<path style="fill:#303C42;" d="M485.789,282.977c3.323-15.85,5.182-32.047,5.182-48.31C490.971,105.271,385.564,0,256,0
	S21.028,105.271,21.028,234.667c0,16.306,1.874,32.503,5.194,48.297c-36.331,46.845-35.241,113.178,5.34,154.38
	C65.106,471.406,114.086,512,156.892,512c16.813,0,31.332-6.094,43.181-18.115c8.729-8.855,12.554-18.556,13.096-28.697
	c13.957,2.461,28.373,4.145,42.83,4.145c14.489,0,28.894-1.676,42.832-4.132c0.545,10.135,4.37,19.832,13.095,28.684
	C323.775,505.906,338.294,512,355.107,512c42.806,0,91.786-40.594,125.329-74.656C521.014,396.146,522.109,329.819,485.789,282.977z
	"/>
<path style="fill:#FED600;" d="M209.65,442.9c-10.663-29.673-41.707-61.056-67.004-86.598l-7.271-7.354
	c-13.292-13.5-22.354-32.469-30.354-49.208c-10.417-21.781-19.417-40.583-36.292-43.406c-7.727-1.309-15.595,1.129-23.897,7.263
	c-1.297-9.564-2.165-19.206-2.165-28.93c0-117.635,95.708-213.333,213.333-213.333s213.333,95.698,213.333,213.333
	c0,9.694-0.872,19.342-2.169,28.926c-8.293-6.139-16.137-8.583-23.893-7.259c-16.875,2.823-25.875,21.625-36.292,43.406
	c-8,16.74-17.063,35.708-30.354,49.208l-7.271,7.354c-25.303,25.549-56.361,56.943-67.014,86.622
	C273,449.145,239.065,449.15,209.65,442.9z"/>
<circle style="fill:#303C42;" cx="341.333" cy="149.333" r="64"/>
<circle style="fill:#BDDDF4;" cx="341.333" cy="149.333" r="42.667"/>
<path style="opacity:0.1;fill:#010101;enable-background:new    ;" d="M365.65,114.359c4.815,6.908,7.684,15.266,7.684,24.307
	c0,23.531-19.146,42.667-42.667,42.667c-9.044,0-17.406-2.872-24.316-7.693C314.068,184.71,326.85,192,341.333,192
	C364.854,192,384,172.865,384,149.333C384,134.85,376.712,122.076,365.65,114.359z"/>
<circle style="fill:#303C42;" cx="170.667" cy="149.333" r="42.667"/>
<circle style="fill:#BDDDF4;" cx="170.667" cy="149.333" r="21.333"/>
<path style="opacity:0.1;fill:#010101;enable-background:new    ;" d="M179.177,129.823c1.147,2.617,1.827,5.478,1.827,8.513
	c0,11.76-9.563,21.333-21.333,21.333c-3.035,0-5.896-0.677-8.51-1.823c3.298,7.522,10.773,12.82,19.507,12.82
	c11.771,0,21.333-9.573,21.333-21.333C192,140.604,186.704,133.121,179.177,129.823z"/>
<ellipse style="fill:#303C42;" cx="256" cy="320" rx="85.333" ry="106.667"/>
<path style="fill:#B72025;" d="M256,234.667c35.292,0,64,38.281,64,85.333c0,10.159-1.565,19.773-4.018,28.818
	c-19.6-10.22-40.754-9.348-59.982-0.026c-19.163-9.307-40.207-10.234-59.964,0.102C193.57,339.828,192,330.186,192,320
	C192,272.948,220.708,234.667,256,234.667z"/>
<path style="opacity:0.1;fill:#010101;enable-background:new    ;" d="M208,336c0-47.052,28.708-85.333,64-85.333
	c10.97,0,21.147,4.039,30.181,10.551C290.52,244.935,274.18,234.667,256,234.667c-35.292,0-64,38.281-64,85.333
	c0,10.186,1.57,19.828,4.036,28.893c4.134-2.163,8.345-3.555,12.563-4.758C208.378,341.431,208,338.786,208,336z"/>
<path style="fill:#E53A35;" d="M256,405.333c-21.654,0-40.754-14.493-52.341-36.5c16.072-9.609,32.063-7.434,46.966,1.26
	c3.333,1.938,7.417,1.938,10.75,0c14.96-8.734,31.158-10.753,46.996-1.31C296.788,390.819,277.671,405.333,256,405.333z"/>
<path style="opacity:0.1;fill:#010101;enable-background:new    ;" d="M265.674,394.793c-19.807,0-37.406-12.21-49.145-31.121
	c-4.273,0.984-8.566,2.589-12.871,5.161c11.587,22.007,30.688,36.5,52.341,36.5c17.466,0,33.198-9.531,44.738-24.728
	C290.664,389.508,278.648,394.793,265.674,394.793z"/>
<path style="fill:#FED600;" d="M184.938,478.927c-7.771,7.896-16.896,11.74-27.917,11.74c-27.583,0-66.646-24.25-109.958-68.281
	c-35.771-36.375-33.979-97.365,4-135.969c9-9.146,13.042-9.219,14.146-9.042c5.938,0.99,14.042,17.948,20.563,31.573
	c8.729,18.24,18.604,38.927,34.396,54.958l7.333,7.406C162.063,406.229,209.438,454.042,184.938,478.927z"/>
<path style="opacity:0.1;fill:#010101;enable-background:new    ;" d="M184.938,457.594c-7.771,7.896-16.896,11.74-27.917,11.74
	c-27.583,0-66.646-24.25-109.958-68.281c-14.477-14.72-22.486-33.51-24.75-53.178c-2.82,27.076,5.078,54.507,24.75,74.512
	c43.312,44.031,82.375,68.281,109.958,68.281c11.021,0,20.146-3.844,27.917-11.74c7.525-7.643,8.227-17.461,4.645-28.392
	C188.483,453.027,187.072,455.426,184.938,457.594z"/>
<path style="fill:#FED600;" d="M464.938,422.385c-43.313,44.031-82.375,68.281-109.958,68.281c-11.021,0-20.146-3.844-27.917-11.74
	c-24.5-24.885,22.875-72.698,57.438-107.615l7.333-7.406c15.792-16.031,25.667-36.719,34.396-54.958
	c6.521-13.625,14.625-30.583,20.563-31.573c0.125-0.021,0.271-0.031,0.479-0.031c1.563,0,5.729,1,13.667,9.073
	C498.917,325.021,500.708,386.01,464.938,422.385z"/>
<g>
	<path style="opacity:0.1;fill:#010101;enable-background:new    ;" d="M464.938,401.052
		c-43.313,44.031-82.375,68.281-109.958,68.281c-11.021,0-20.146-3.844-27.917-11.74c-2.134-2.168-3.546-4.566-4.645-7.059
		c-3.582,10.931-2.88,20.749,4.645,28.392c7.771,7.896,16.896,11.74,27.917,11.74c27.583,0,66.646-24.25,109.958-68.281
		c19.672-20.005,27.57-47.436,24.75-74.512C487.423,367.542,479.414,386.332,464.938,401.052z"/>
	<path style="opacity:0.1;fill:#010101;enable-background:new    ;" d="M323.034,407.336
		c-26.952,12.298-56.809,19.331-88.367,19.331c-11.785,0-23.29-1.118-34.546-2.967c3.889,6.428,7.249,12.854,9.529,19.201
		c29.04,6.171,62.451,6.188,91.531,0.203c0.413-0.089,0.806-0.221,1.217-0.313C306.626,431.078,314.073,419.115,323.034,407.336z"/>
	<path style="opacity:0.1;fill:#010101;enable-background:new    ;" d="M466.94,204.464c-0.71-4.97-1.431-9.94-2.479-14.793
		c-0.603-2.798-1.418-5.512-2.13-8.267c-1.146-4.423-2.303-8.841-3.72-13.147c-0.9-2.738-1.96-5.398-2.966-8.087
		c-1.582-4.215-3.21-8.405-5.046-12.488c-1.138-2.535-2.38-5.01-3.613-7.491c-2.046-4.111-4.177-8.165-6.475-12.12
		c-1.303-2.247-2.663-4.458-4.046-6.652c-2.566-4.066-5.259-8.043-8.086-11.919c-1.376-1.889-2.764-3.768-4.199-5.611
		c-3.163-4.049-6.484-7.964-9.924-11.773c-1.342-1.49-2.661-2.999-4.044-4.449c-3.857-4.038-7.901-7.889-12.06-11.618
		c-0.699-0.628-1.379-1.279-2.086-1.897C428.331,111.527,448,160.079,448,213.333c0,14.723-1.492,29.098-4.332,42.98
		c7.622-1.174,15.332,1.242,23.479,7.268c0.018-0.135,0.044-0.268,0.063-0.404c0.522-3.888,0.924-7.793,1.275-11.702
		c0.435-5.563,0.849-11.135,0.849-16.81c0-7.72-0.462-15.327-1.264-22.831C467.803,209.344,467.293,206.93,466.94,204.464z"/>
</g>
<linearGradient id="SVGID_1_" gradientUnits="userSpaceOnUse" x1="-45.3413" y1="638.7254" x2="-22.8153" y2="628.2214" gradientTransform="matrix(21.3333 0 0 -21.3333 996.3334 13791.667)">
	<stop  offset="0" style="stop-color:#FFFFFF;stop-opacity:0.2"/>
	<stop  offset="1" style="stop-color:#FFFFFF;stop-opacity:0"/>
</linearGradient>
<path style="fill:url(#SVGID_1_);" d="M485.789,282.977c3.323-15.85,5.182-32.047,5.182-48.31C490.971,105.271,385.564,0,256,0
	S21.028,105.271,21.028,234.667c0,16.306,1.874,32.503,5.194,48.297c-36.331,46.845-35.241,113.178,5.34,154.38
	C65.106,471.406,114.086,512,156.892,512c16.813,0,31.332-6.094,43.181-18.115c8.729-8.855,12.554-18.556,13.096-28.697
	c13.957,2.461,28.373,4.145,42.83,4.145c14.489,0,28.894-1.676,42.832-4.132c0.545,10.135,4.37,19.832,13.095,28.684
	C323.775,505.906,338.294,512,355.107,512c42.806,0,91.786-40.594,125.329-74.656C521.014,396.146,522.109,329.819,485.789,282.977z
	"/>
<g>
</g>
<g>
</g>
<g>
</g>
<g>
</g>
<g>
</g>
<g>
</g>
<g>
</g>
<g>
</g>
<g>
</g>
<g>
</g>
<g>
</g>
<g>
</g>
<g>
</g>
<g>
</g>
<g>
</g>
</svg>
