<?xml version="1.0" encoding="utf-8"?>
<!-- Generator: Adobe Illustrator 22.1.0, SVG Export Plug-In . SVG Version: 6.00 Build 0)  -->
<svg version="1.1" id="Layer_1" xmlns="http://www.w3.org/2000/svg" xmlns:xlink="http://www.w3.org/1999/xlink" x="0px" y="0px"
	 viewBox="0 0 679.5 556.6" style="enable-background:new 0 0 679.5 556.6;" xml:space="preserve">
<style type="text/css">
	.st0{display:none;}
	.st1{display:inline;fill:#F97878;}
	.st2{fill:#FF7676;}
	.st3{fill:#FFAEAE;}
</style>
<g class="st0">
	<path class="st1" d="M339.8,153.2c-0.6-1.4-11-28.1-11.6-29.5C288.1,35.8,215.2-4,148.3,0.3C232.6,11.5,300.9,55.4,339.8,153.2z"/>
	<path class="st1" d="M511.8,0.3C590,5.4,660.1,70.7,660.1,189.5c0,191.3-223.4,258.9-297.1,333.6c-11,13-26,29.7-23.2,33.4
		c56.9-77.1,339.8-166.1,339.8-367.1C679.5,60.9,597.4-5,511.8,0.3z"/>
</g>
<path class="st2" d="M339.8,153.2c0,0,0-0.1,0-0.1v403.5c0,0,0,0,0,0.1c15.7-61.1,62.7-135.5,152.3-183.5
	c84-45,187.5-88.2,187.5-183.6C679.5-41.8,414.2-70.2,339.8,153.2z"/>
<path class="st3" d="M339.8,153.2c0,0,0-0.1,0-0.1v403.5c0,0,0,0,0,0.1c-15.7-61.1-62.7-135.5-152.3-183.5
	C103.5,328.1,0,284.9,0,189.5C0.1-41.8,265.4-70.2,339.8,153.2z"/>
</svg>
