<?xml version="1.0" encoding="utf-8"?>
<!-- Generator: Adobe Illustrator 22.1.0, SVG Export Plug-In . SVG Version: 6.00 Build 0)  -->
<svg version="1.1" id="Layer_1" xmlns="http://www.w3.org/2000/svg" xmlns:xlink="http://www.w3.org/1999/xlink" x="0px" y="0px"
	 viewBox="0 0 679.5 556.6" style="enable-background:new 0 0 679.5 556.6;" xml:space="preserve">
<style type="text/css">
	.st0{fill:#FFAEAE;}
	.st1{fill:#F97878;}
</style>
<path class="st0" d="M339.8,153.2C265.3-70.2,0-41.8,0,189.5c0,201,282.8,289.9,339.8,367.1c56.9-77.1,339.8-166.1,339.8-367.1
	C679.5-41.8,414.2-70.2,339.8,153.2z"/>
<g>
	<path class="st1" d="M339.8,153.2c-0.6-1.4-11-28.1-11.6-29.5C288.1,35.8,215.2-4,148.3,0.3C232.6,11.5,300.9,55.4,339.8,153.2z"/>
	<path class="st1" d="M511.8,0.3C590,5.4,660.1,70.7,660.1,189.5c0,191.3-223.4,258.9-297.1,333.6c-11,13-26,29.7-23.2,33.4
		c56.9-77.1,339.8-166.1,339.8-367.1C679.5,60.9,597.4-5,511.8,0.3z"/>
</g>
</svg>
